<?xml version="1.0" encoding="utf-8"?>
<!-- Generator: Adobe Illustrator 15.1.0, SVG Export Plug-In . SVG Version: 6.00 Build 0)  -->
<!DOCTYPE svg PUBLIC "-//W3C//DTD SVG 1.1//EN" "http://www.w3.org/Graphics/SVG/1.1/DTD/svg11.dtd">
<svg version="1.1" id="Layer_1" xmlns="http://www.w3.org/2000/svg" xmlns:xlink="http://www.w3.org/1999/xlink" x="0px" y="0px"
	 width="292px" height="101.553px" viewBox="0 0 292 101.553" enable-background="new 0 0 292 101.553" xml:space="preserve">
<path fill="#FFFFFF" d="M133.91,99.034c0,1.39,1.128,2.52,2.52,2.52c1.391,0,2.519-1.13,2.519-2.52c0-1.392-1.128-2.52-2.519-2.52
	C135.038,96.514,133.91,97.642,133.91,99.034"/>
<path fill="#CC8B19" d="M176.556,19.436c-0.171-0.154-0.352-0.292-0.54-0.42c0.171,0.129,0.334,0.265,0.491,0.408
	C176.525,19.428,176.541,19.432,176.556,19.436"/>
<path fill="#CC8B19" d="M178.45,22.276c0.226,0.513,0.418,1.053,0.581,1.607c0.002,0.002,0.006,0.002,0.008,0.004
	c-0.155-0.539-0.342-1.077-0.562-1.598C178.467,22.286,178.459,22.28,178.45,22.276"/>
<path fill="#CC8B19" d="M179.802,29.1c0.035,0.033,0.057,0.052,0.057,0.052c-0.002-0.062-0.027-1.127-0.243-2.57
	c-0.008-0.005-0.016-0.01-0.023-0.016C179.711,27.428,179.778,28.283,179.802,29.1"/>
<path fill="#CC8B19" d="M179.531,28.837c-5.791-5.508-19.277-5.094-27.78,1.911c-0.004,0.012-0.01,0.021-0.016,0.033
	c7.631-6.298,18.892-7.231,25.828-3.402c1.009,0.649,1.839,1.362,2.156,1.645c-0.3-0.295-0.63-0.568-0.967-0.829
	C179.019,28.386,179.278,28.6,179.531,28.837"/>
<path fill="#CC8B19" d="M179.531,28.837c-0.253-0.237-0.512-0.452-0.778-0.642c0.337,0.261,0.667,0.533,0.967,0.829
	c0.002,0.003,0.006,0.005,0.01,0.01C179.663,28.967,179.596,28.901,179.531,28.837"/>
<path fill="#CC8B19" d="M179.733,29.038c-0.068-0.068-0.135-0.137-0.202-0.2c0.065,0.063,0.132,0.13,0.198,0.196
	C179.729,29.034,179.731,29.036,179.733,29.038"/>
<path fill="#2F4C60" d="M178.45,22.276c0.01,0.004,0.018,0.009,0.027,0.013c-0.467-1.101-1.089-2.115-1.921-2.854
	c-0.016-0.004-0.031-0.008-0.049-0.012C177.332,20.185,177.967,21.172,178.45,22.276"/>
<path fill="#2F4C60" d="M179.592,26.566c0.008,0.006,0.016,0.01,0.023,0.016c-0.12-0.814-0.303-1.751-0.577-2.694
	c-0.002-0.002-0.006-0.002-0.008-0.004C179.286,24.754,179.468,25.663,179.592,26.566"/>
<path fill="#2F4C60" d="M289.537,24.679c-1.578-1.485-3.538-2.182-5.902-2.09c-3.779,0.159-6.963,1.74-9.504,4.732
	c-2.551,2.989-3.693,6.57-3.468,10.736c0.083,1.667,0.412,2.484,0.954,2.457c0.062-0.003,0.161-0.459,0.3-1.365
	c0.225-1.508,1.03-3.167,2.418-4.977c1.96-2.496,4.38-3.806,7.206-3.928c2.286-0.094,3.471,1.045,3.567,3.413
	c0.129,3.319-1.709,6.65-5.453,10.021c-3.925,3.563-8.156,5.466-12.754,5.731c-2.729,0.158-4.98-0.49-6.775-1.952
	c-1.798-1.461-2.797-3.633-2.986-6.533c-0.151-2.244,0.214-4.502,1.103-6.773c-0.008,0.002-0.014,0.006-0.014,0.008
	c0.449-1.081,0.943-2.238,1.491-3.478c1.991-4.264,4.005-8.562,6.044-12.879c1.554-3.404,2.312-5.708,2.245-6.917
	c-0.052-0.886-1.062-1.74-3.038-2.55c-1.981-0.809-3.915-1.159-5.807-1.04c-2.37,0.149-5.854,2.572-10.379,7.31
	c-2.499,2.804-4.978,5.612-7.431,8.424c-0.039-0.025-0.075-0.055-0.108-0.088c0.591-1.783,1.188-3.599,1.788-5.451
	c0.914-2.962,1.344-4.957,1.266-5.98c-0.088-1.152-1.143-2.072-3.161-2.748c-1.602-0.521-2.989-0.731-4.131-0.636
	c-2.008,0.165-6.044,7.108-11.709,20.887c-1.268,3.095-2.351,5.894-3.297,8.416c-1.346,2.119-2.428,3.803-3.258,5.014
	c-3.863,5.583-6.944,8.521-9.345,8.789c-0.91,0.101-1.418-0.325-1.524-1.278c-0.373-3.291,0.921-8.125,3.966-14.48
	c2.396-5.008,4.831-9.04,7.278-12.102c0.175-0.276,1.24-1.405,3.2-3.392c1.105-1.134,1.627-2.045,1.559-2.743
	c-0.114-1.206-1.015-2.677-2.708-4.401c-1.695-1.726-3.22-2.521-4.562-2.385c-0.206,0.023-1.744,0.306-4.611,0.861
	c-2.867,0.56-5.245,0.949-7.125,1.159c-1.474,0.165-2.243,0.027-2.286-0.416c0.002,0.066,0.137-0.245,0.4-0.914
	c0.265-0.671,0.356-1.388,0.269-2.15c-0.183-1.645-1.052-2.381-2.61-2.205c-0.018,0.004-0.041,0.006-0.059,0.012
	c-1.929,0.233-3.334,0.914-4.219,2.028c-0.655,0.787-1.297,2.274-1.919,4.469c-0.299,0.939-0.809,3.183-1.522,6.742
	c-0.583,2.962-1.296,5.62-2.146,7.978c-0.367,0.982-0.749,1.95-1.142,2.917c-0.187-4.94-1.951-10.774-5.836-14.987
	c0.047-0.123,0.113-0.235,0.08-0.329c-0.136-0.369,0.828-3.804,0.669-4.817c-0.673-3.165-3.834-5.982-5.973-3.427
	c-0.491,0.586-0.762,1.265-0.88,1.975c-0.123,0.715-0.168,1.043-0.129,0.991c-0.173,0.231-0.787,0.728-1.499,0.754
	c-0.246-0.071-0.509-0.136-0.779-0.185c-0.07-0.037-0.132-0.08-0.196-0.126c0,0,0.002,0.002,0.002,0.008
	c0.004,0.025,0.012,0.052,0.025,0.083c-6.81-1.235-20.144,2.591-26.581,9.728c-2.197,2.428-7.439,7.774-4.411,20.13
	c-0.871,2.08-1.987,4.543-3.106,6.337c-2.706,4.339-5.368,7.825-8.021,10.457c-2.759,2.752-5.579,4.679-8.48,5.778
	c-1.254,0.478-2.512,0.801-3.796,0.968c-1.549,0.204-3.035-0.208-4.45-1.238c-1.427-1.031-2.273-2.522-2.547-4.481
	c-0.495-3.603,0.304-8.121,2.454-13.554c1.802-4.551,4.104-8.806,6.914-12.758c0.558-0.78,1.075-1.476,1.566-2.104
	c2.016-2.574,3.517-3.921,4.487-4.036c0.865-0.105,1.388,0.571,1.557,2.029c0.274,2.279,0.08,4.934-0.568,7.965
	c-0.46,2.305-0.939,3.903-1.433,4.795c-0.222,0.354-0.461,0.638-0.696,0.86c-0.243,0.221-0.352,0.395-0.338,0.521
	c0.037,0.317,0.255,0.451,0.653,0.402c1.643-0.2,3.854-1.24,6.653-3.102c1.496-0.941,2.745-2.306,3.757-4.084
	c1.361-2.207,1.921-4.479,1.663-6.828c-0.672-6.211-3.742-9.026-9.189-8.39c-1.075,0.126-2.286,0.418-3.629,0.865
	c-1.038,0.348-1.994,0.603-2.879,0.76c-0.25,0.044-0.501,0.083-0.738,0.117c-6.515,0.807-12.395,5.833-17.436,15.044
	c-0.179,0.327-0.342,0.644-0.517,0.965c-0.431,0.663-6.188,14.687-5.02,21.687c0.803,4.842,2.648,8.433,5.737,10.752
	c2.855,2.033,6.188,2.782,10.029,2.259c2.656-0.365,5.226-1.152,7.735-2.364c2.815-1.349,5.541-3.236,8.196-5.661
	c3.773-3.406,7.136-7.583,10.097-12.527c0.328-0.576,0.632-1.116,0.916-1.625c-0.363,3.591,0.98,8.464,3.439,12.055
	c0.816,1.884,1.403,3.629,1.521,4.788c0.066,0.7,0.031,1.378-0.102,2.023c-0.136,0.656-0.204,1-0.202,1.032
	c0.023,0.201,0.41,0.362,1.159,0.488c0.597,0.093,3.359,0.235,4.906-3.488c10.092,1.363,23.436-7.22,30.451-19.191
	c0.107-0.128,0.202-0.269,0.313-0.438c5.686-8.7,11.026-20.146,13.355-24.985c0.112-0.206,0.367-0.332,0.768-0.381
	c0.346-0.041,0.756-0.035,1.207-0.004c0.573,0.043,1.225,0.142,1.966,0.309c1.313,0.299,1.982,0.515,1.994,0.637
	c-0.006-0.06-0.985,1.75-2.91,5.438c-0.383,0.737-0.732,1.45-1.087,2.156c-1.682,3.378-3.032,6.464-4.064,9.25
	c-1.729,4.901-2.401,8.717-2.061,11.439c0.412,3.289,1.731,5.705,3.956,7.264c0.638,0.448,1.321,0.811,2.045,1.097
	c1.784,0.712,3.807,0.947,6.093,0.68c2.514-0.29,5.481-2.453,8.985-6.479c0.773-0.873,1.539-1.812,2.294-2.786
	c-0.086,0.649-0.125,1.184-0.082,1.575c0.163,1.593,1.063,2.979,2.683,4.166c1.613,1.192,3.004,1.727,4.168,1.614
	c0.771-0.077,1.773-1.45,3.02-4.147c2.731-5.711,4.434-9.168,5.052-10.375c5.01-9.193,11.742-18.077,19.78-26.471
	c0.137,0.056,0.278,0.11,0.418,0.167c-2.377,3.614-4.586,7.831-6.619,12.652c-1.392,3.249-2.447,6.77-2.622,10.097
	c-0.148,2.984,0.408,5.812,2.051,8.167c0.694,0.985,1.568,1.888,2.659,2.684c0.037,0.032,0.066,0.062,0.105,0.09
	c3.709,2.962,8.128,4.273,13.303,3.946c8.236-0.515,15.426-3.515,21.697-9.061c5.925-5.231,8.854-10.715,8.65-16.524
	C291.928,27.949,291.111,26.17,289.537,24.679"/>
<path fill="#2F4C60" d="M112.594,4.379c0.809-1.495,1.281-2.484,0.976-2.994c-0.521-0.874-1.135-0.915-3.522-1.313
	c-0.443-0.076-0.991-0.084-1.561-0.06c-1.011,0.042-2.117,0.19-3.058,0.322c-1.398,0.144-2.625,0.245-3.383,0.21
	c-2.546-0.109-3.629,0.597-5.385,2.922c-8.614,11.491-18.725,26.221-27.535,38.758c0,0-0.188,0.258-0.472,0.647
	c-3.151-3.209-7.169-6.287-11.53-7.881c-11.207-4.099-21.575,0.579-24.938,8.611c-3.243,7.732-0.024,15.343,5.354,17.78
	c4.03,1.826,9.718,0.076,10.529-1.86c0.191-0.445-0.008-0.84-0.329-0.898c-0.428,0.093-1.281,0.572-3.661-0.428
	c-4.014-1.676-6.462-5.85-4.347-10.91c2.62-6.246,10.311-8.194,17.542-5.259c2.354,0.958,5.29,2.916,8.075,5.636
	C49.581,69.37,35.107,84.154,19.401,83.468c-6.899-0.301-10.185-4.201-9.915-10.352c0.216-4.943,4.858-8.052,7.872-8.221
	c0.756-0.119,1.062-0.249,1.082-0.702c0.013-0.299-0.272-0.614-1.023-0.645c-7.949-0.345-16.948,6.17-17.399,16.516
	C-0.383,89.21,5.81,98.799,19.305,99.387c19.042,0.832,37.269-24.623,50.84-46.41c4.397,5.9,6.298,10.898,8.33,19.4
	C80.864,83,83.714,90.033,93.16,90.445c1.174,0.053,2.339-0.093,3.498-0.373c1.761-0.434,3.484-1.217,5.169-2.257
	c0.443-0.322,0.887-0.657,1.322-1.038c0.011-0.003,0.02-0.013,0.031-0.02c2.975-2.486,4.396-6.043,4.388-7.302
	c0.001-0.595-0.194-0.991-0.702-0.89c-0.472,1.284-2.998,3.266-5.453,3.83c-0.441,0.072-0.873,0.11-1.295,0.095
	c-5.997-0.264-6.613-6.899-6.124-18.001c0.714-16.339,7.749-36.312,12.576-47.068C108,14.214,112.172,5.163,112.594,4.379
	 M80.469,58.31c-2.346-4.44-7.149-10.373-7.149-10.373c8.361-12.55,20.752-33.316,20.752-33.316
	C90.051,24.057,81.375,47.576,80.469,58.31"/>
<path fill="#2F4C60" d="M139.142,99.409h-4.736l1.443-4.642h-5.206l-3.011,4.642h-1.6l16.12-25.089h4.799L139.142,99.409z
	 M131.614,93.324h4.673l3.198-10.255c0.021-0.043,0.031-0.083,0.031-0.126v-0.031c0-0.167-0.062-0.304-0.189-0.409
	c-0.125-0.103-0.261-0.155-0.406-0.155c-0.147,0-0.282,0.072-0.408,0.22L131.614,93.324z"/>
<path fill="#2F4C60" d="M156.43,85.138c0.25,0,0.448-0.114,0.597-0.344l7.902-10.475h4.893l-12.389,25.089h-1.599l8.061-16.339
	c0.02-0.043,0.031-0.083,0.031-0.126c0-0.021,0.01-0.031,0.03-0.031c0.041-0.146,0.006-0.276-0.108-0.393
	c-0.116-0.115-0.247-0.171-0.393-0.171c-0.188,0-0.334,0.072-0.439,0.22l-12.418,16.841h-2.479l3.952-16.339v-0.157
	c-0.042-0.167-0.13-0.304-0.266-0.409c-0.137-0.103-0.278-0.155-0.424-0.155c-0.127,0-0.251,0.072-0.377,0.22l-8.28,16.841h-1.598
	l12.263-25.089h4.892l-2.353,10.161c-0.062,0.272-0.016,0.449,0.142,0.533C156.226,85.097,156.346,85.138,156.43,85.138"/>
<path fill="#2F4C60" d="M183.334,74.585c0.471,0.177,0.895,0.407,1.271,0.69c0.376,0.282,0.685,0.611,0.926,0.987
	c0.239,0.375,0.359,0.774,0.359,1.192c0,0.188-0.047,0.455-0.142,0.799c-0.094,0.346-0.255,0.727-0.486,1.145l-3.73,7.589
	c-0.251,0.502-0.569,1-0.956,1.491c-0.389,0.49-0.822,0.929-1.303,1.316c-0.48,0.387-0.999,0.7-1.554,0.94
	c-0.554,0.241-1.111,0.362-1.677,0.362h-5.613l-4.045,8.311h-4.735l12.229-25.089h8.091
	C182.41,74.319,182.865,74.409,183.334,74.585 M181.407,77.612c0.104-0.272,0.157-0.513,0.157-0.721c0-0.754-0.387-1.129-1.16-1.129
	h-1.224c-0.816,0-1.433,0.408-1.851,1.223l-5.301,10.82c-0.104,0.229-0.155,0.459-0.155,0.69c0,0.773,0.387,1.159,1.16,1.159h1.285
	c0.816,0,1.421-0.418,1.819-1.254L181.407,77.612z"/>
<polygon fill="#2F4C60" points="185.012,97.966 188.432,97.966 187.711,99.409 179.586,99.409 191.819,74.319 196.554,74.319 "/>
<polygon fill="#2F4C60" points="194.336,99.409 189.6,99.409 201.833,74.319 206.568,74.319 "/>
<polygon fill="#2F4C60" points="214.474,87.836 208.829,87.836 203.183,99.409 198.448,99.409 210.679,74.319 221.061,74.319 
	220.371,75.762 214.694,75.762 209.519,86.394 215.165,86.394 "/>
<polygon fill="#2F4C60" points="216.673,99.409 211.937,99.409 224.167,74.319 228.903,74.319 "/>
<polygon fill="#2F4C60" points="233.014,74.319 243.395,74.319 242.706,75.762 237.029,75.762 231.854,86.394 237.5,86.394 
	236.809,87.836 231.164,87.836 226.21,97.966 231.887,97.966 231.197,99.409 220.785,99.409 "/>
<path fill="#2F4C60" d="M256.354,74.585c0.471,0.177,0.895,0.407,1.27,0.69c0.377,0.282,0.687,0.611,0.926,0.987
	c0.241,0.375,0.361,0.774,0.361,1.192c0,0.188-0.047,0.455-0.142,0.799c-0.094,0.346-0.257,0.727-0.486,1.145l-3.732,7.589
	c-0.229,0.482-0.527,0.957-0.893,1.427c-0.367,0.471-0.773,0.895-1.223,1.272c-0.451,0.375-0.931,0.69-1.444,0.939
	c-0.512,0.253-1.04,0.408-1.582,0.472l-1.381,8.311h-4.516l1.38-8.311h-1.442l-4.045,8.311h-4.738l12.232-25.089h8.091
	C255.429,74.319,255.883,74.409,256.354,74.585 M254.425,77.612c0.105-0.272,0.158-0.513,0.158-0.721
	c0-0.754-0.387-1.129-1.161-1.129h-1.225c-0.814,0-1.431,0.408-1.849,1.223l-5.302,10.82c-0.104,0.229-0.155,0.459-0.155,0.69
	c0,0.773,0.387,1.159,1.161,1.159h1.284c0.815,0,1.422-0.418,1.82-1.254L254.425,77.612z"/>
<path fill="#2F4C60" d="M269.529,90.25c0.084,0.146,0.126,0.294,0.126,0.44v0.157c0,0.019-0.012,0.041-0.03,0.062l-2.197,4.389
	c-0.251,0.502-0.569,1-0.956,1.491c-0.387,0.49-0.82,0.93-1.301,1.316c-0.482,0.387-0.999,0.702-1.554,0.941
	c-0.554,0.241-1.111,0.361-1.678,0.361h-4.547c-0.396,0-0.826-0.08-1.285-0.235c-0.46-0.158-0.884-0.377-1.271-0.659
	c-0.388-0.282-0.706-0.612-0.957-0.987c-0.251-0.377-0.375-0.786-0.375-1.225c0-0.501,0.198-1.159,0.595-1.975l0.972-2.006h4.736
	l-1.851,3.795c-0.125,0.272-0.188,0.501-0.188,0.69c0,0.774,0.386,1.161,1.161,1.161h1.285c0.814,0,1.421-0.42,1.819-1.256
	l2.759-5.676l-4.767-8.122c-0.062-0.126-0.094-0.251-0.094-0.377c0-0.082,0.01-0.146,0.031-0.187
	c0.02-0.042,0.031-0.074,0.031-0.095l2.822-5.802c0.146-0.293,0.365-0.569,0.659-0.832c0.292-0.26,0.61-0.486,0.956-0.674
	c0.345-0.187,0.694-0.338,1.05-0.455c0.356-0.115,0.69-0.171,1.004-0.171h5.426c0.438,0,0.894,0.089,1.364,0.266
	c0.471,0.177,0.895,0.407,1.27,0.69c0.377,0.282,0.687,0.611,0.925,0.987c0.241,0.375,0.362,0.774,0.362,1.192
	c0,0.396-0.21,1.046-0.628,1.944l-0.973,2.008h-4.767l1.882-3.795c0.105-0.272,0.158-0.513,0.158-0.721
	c0-0.754-0.388-1.129-1.161-1.129h-1.225c-0.793,0-1.399,0.408-1.817,1.223l-2.541,5.113L269.529,90.25z"/>
<path fill="#F4EDD7" d="M179.802,29.107c0-0.001,0-0.003,0-0.007c-0.019-0.015-0.042-0.037-0.069-0.062
	C179.756,29.061,179.78,29.082,179.802,29.107"/>
<path fill="#F4EDD7" d="M175.905,18.944c0.037,0.023,0.074,0.048,0.111,0.071c-0.312-0.231-0.646-0.435-1.004-0.604
	c-8.054-3.779-23.474,3.22-26.07,15.136c0.075-0.091,0.147-0.185,0.229-0.282c0.79-0.918,1.656-1.755,2.58-2.518
	C156.083,21.279,168.538,16.174,175.905,18.944"/>
<path fill="#F4EDD7" d="M176.919,39.609c-0.039-1.318-0.389-2.471-0.981-3.47c-1.309,7.572-10.506,15.984-13.632,17.557
	c-0.24,0.125-0.501,0.153-0.754,0.146c-0.28-0.016-0.346-0.163-0.342-0.263c0.016-0.216,0.177-0.455,0.505-0.713
	c0.152-0.115,0.317-0.264,0.488-0.426c0.503-0.507,1.036-1.118,1.609-1.856c1.585-2.063,2.257-3.482,1.981-4.207
	c-0.187-0.523-1.103-0.48-2.737,0.111l-0.239-0.642c1.956-0.811,10.377-11.153,6.952-13.974c-0.492-0.14-0.994-0.26-1.501-0.361
	c-6.882-1.368-15.066,0.791-17.724,5.467c-2.025,6.438-1.481,15.462,3.03,20c2.551,1.734,5.879,1.363,9.145,0.13
	c5.272-1.991,9.558-6.281,12.553-11.328C176.476,43.41,176.972,41.362,176.919,39.609"/>
<path fill="#F4EDD7" d="M179.719,29.024c0.027,0.029,0.057,0.054,0.083,0.083c-0.024-0.025-0.05-0.048-0.075-0.073
	C179.725,29.029,179.721,29.027,179.719,29.024"/>
<path fill="#F4EDD7" d="M179.727,29.034c0.025,0.025,0.051,0.048,0.075,0.073c-0.022-0.025-0.046-0.046-0.069-0.069
	C179.731,29.036,179.729,29.034,179.727,29.034"/>
<polygon fill="#CC8B19" points="132.639,74.169 123.026,90.286 121.374,87.711 114.114,99.059 121.595,79.724 123.556,83.907 
	126.681,74.426 "/>
<polygon fill="#CC8B19" points="292,74.169 282.394,90.292 280.732,87.711 273.481,99.059 280.388,79.648 282.917,83.91 
	286.042,74.426 "/>
<path fill="#CC8B19" d="M176.542,37.331c-1.044-3.001-4.537-5.294-8.273-5.82c0.507,0.101,1.009,0.222,1.501,0.361
	c3.423,2.821-4.996,13.163-6.952,13.974l0.239,0.642c1.635-0.591,2.551-0.634,2.737-0.111c0.275,0.725-0.396,2.144-1.981,4.207
	c-0.573,0.738-1.106,1.349-1.609,1.856c-0.171,0.162-0.336,0.311-0.488,0.426c-0.328,0.258-0.489,0.498-0.505,0.713
	c-0.004,0.1,0.062,0.247,0.344,0.263c0.251,0.007,0.512-0.021,0.752-0.146c3.126-1.572,12.323-9.985,13.632-17.557
	C176.531,37.138,176.872,38.272,176.542,37.331"/>
<path fill="#CC8B19" d="M169.295,22.888c-0.737-0.125-1.024-0.192-0.463-0.421c3.828-0.544,7.36,0.116,10.198,1.417
	c-0.163-0.554-0.355-1.095-0.581-1.607c-3.391-1.667-7.434-2.442-10.449-2.244c-0.889,0.087-1.401-0.241-0.698-0.468
	c3.267-0.838,6.426-0.782,9.205-0.141c-0.157-0.144-0.322-0.279-0.491-0.408c-0.037-0.023-0.072-0.048-0.111-0.071
	c-7.367-2.771-19.821,2.334-24.154,11.804c8.503-7.004,21.989-7.418,27.78-1.911c0.067,0.065,0.134,0.132,0.202,0.2
	c0.027,0.025,0.051,0.047,0.069,0.062c-0.024-0.817-0.091-1.672-0.21-2.533C176.342,24.288,172.011,22.995,169.295,22.888"/>
</svg>
